<?xml version="1.0" encoding="utf-8"?>
<!-- Generator: Adobe Illustrator 28.1.0, SVG Export Plug-In . SVG Version: 6.00 Build 0)  -->
<svg version="1.1" id="Capa_1" xmlns="http://www.w3.org/2000/svg" xmlns:xlink="http://www.w3.org/1999/xlink" x="0px" y="0px"
	 viewBox="0 0 24 24" style="enable-background:new 0 0 24 24;" xml:space="preserve">
<style type="text/css">
	.st0{fill:#F60D82;stroke:#FFFFFF;stroke-miterlimit:10;}
</style>
<path class="st0" d="M4,17v2h16v-2H4z M4,6h2.2C6.1,5.8,6.1,5.7,6,5.5C6,5.4,6,5.2,6,5c0-0.8,0.3-1.5,0.9-2.1S8.2,2,9,2
	c0.5,0,1,0.1,1.4,0.4s0.8,0.6,1.1,1L12,4l0.5-0.7c0.3-0.4,0.7-0.7,1.1-1C14,2.1,14.5,2,15,2c0.8,0,1.5,0.3,2.1,0.9S18,4.2,18,5
	c0,0.2,0,0.4,0,0.5c0,0.2-0.1,0.3-0.2,0.5H20c0.6,0,1,0.2,1.4,0.6S22,7.4,22,8v11c0,0.5-0.2,1-0.6,1.4S20.6,21,20,21H4
	c-0.5,0-1-0.2-1.4-0.6S2,19.5,2,19V8c0-0.6,0.2-1,0.6-1.4S3.5,6,4,6z M4,14h16V8h-5.1l2.1,2.8L15.4,12L12,7.4L8.6,12L7,10.8L9.1,8H4
	V14z M9,6c0.3,0,0.5-0.1,0.7-0.3C9.9,5.5,10,5.3,10,5S9.9,4.5,9.7,4.3C9.5,4.1,9.3,4,9,4S8.5,4.1,8.3,4.3C8.1,4.5,8,4.7,8,5
	s0.1,0.5,0.3,0.7S8.7,6,9,6z M15,6c0.3,0,0.5-0.1,0.7-0.3C15.9,5.5,16,5.3,16,5s-0.1-0.5-0.3-0.7C15.5,4.1,15.3,4,15,4
	s-0.5,0.1-0.7,0.3C14.1,4.5,14,4.7,14,5s0.1,0.5,0.3,0.7C14.5,5.9,14.7,6,15,6z"/>
</svg>
