<?xml version="1.0" encoding="utf-8"?>
<!-- Generator: Adobe Illustrator 28.1.0, SVG Export Plug-In . SVG Version: 6.00 Build 0)  -->
<svg version="1.1" id="Capa_1" xmlns="http://www.w3.org/2000/svg" xmlns:xlink="http://www.w3.org/1999/xlink" x="0px" y="0px"
	 viewBox="0 0 24 24" style="enable-background:new 0 0 24 24;" xml:space="preserve">
<style type="text/css">
	.st0{fill:#F60D82;stroke:#FFFFFF;stroke-linecap:round;stroke-miterlimit:10;}
</style>
<path class="st0" d="M5,22c-0.5,0-1-0.2-1.4-0.6S3,20.5,3,20V6c0-0.5,0.2-1,0.6-1.4S4.5,4,5,4h1V2h2v2h8V2h2v2h1
	c0.6,0,1,0.2,1.4,0.6S21,5.4,21,6v14c0,0.5-0.2,1-0.6,1.4S19.6,22,19,22H5z M5,20h14V10H5V20z M5,8h14V6H5V8z M5,8V6V8z"/>
</svg>
