<?xml version="1.0" encoding="utf-8"?>
<!-- Generator: Adobe Illustrator 28.1.0, SVG Export Plug-In . SVG Version: 6.00 Build 0)  -->
<svg version="1.1" id="Capa_1" xmlns="http://www.w3.org/2000/svg" xmlns:xlink="http://www.w3.org/1999/xlink" x="0px" y="0px"
	 viewBox="0 0 24 24" style="enable-background:new 0 0 24 24;" xml:space="preserve">
<style type="text/css">
	.st0{fill:none;stroke:#F60D82;stroke-width:0.75;stroke-linecap:round;stroke-linejoin:round;stroke-miterlimit:10;}
</style>
<g>
	<path class="st0" d="M8.9,1.1c0,0,0.2,4.7,3.2,4.7s2.6-4.7,2.6-4.7s2,3.8,0.5,6.4c-0.3,0.6,0.1,2,0.6,3.2
		c0.8,3.1,2.3,11.3,2.3,11.3s-5.1,1.7-12,0c0.1-2,1.5-9.8,2.3-11.2C8.7,10,9.4,9,8.9,7.6C8.2,6.1,7.7,5.6,8.9,1.1z"/>
	<path class="st0" d="M8.4,10.9c0,0,3.5,0.7,7.3-0.1"/>
</g>
</svg>
