<?xml version="1.0" encoding="utf-8"?>
<!-- Generator: Adobe Illustrator 28.1.0, SVG Export Plug-In . SVG Version: 6.00 Build 0)  -->
<svg version="1.1" id="Capa_1" xmlns="http://www.w3.org/2000/svg" xmlns:xlink="http://www.w3.org/1999/xlink" x="0px" y="0px"
	 viewBox="0 0 24 24" style="enable-background:new 0 0 24 24;" xml:space="preserve">
<style type="text/css">
	.st0{fill:none;stroke:#F60D82;stroke-width:0.75;stroke-linecap:round;stroke-linejoin:round;stroke-miterlimit:10;}
	.st1{fill:#343434;stroke:#F60D82;stroke-width:0.75;stroke-linecap:round;stroke-linejoin:round;stroke-miterlimit:10;}
</style>
<g>
	<path class="st0" d="M9.5,1.4c0,0-2.6,1.6-5,2.1c-0.1,1.3-2,18.1-2,18.1l2.6,0.3l1.3-11.1c0,0,1.3,2.6,1,4.6
		c-0.4,2-1.2,7.1-1.2,7.1l4.2,0.4l1.4-2.6l1,2.6h5.1l-1.8-7.5c0,0,0-3,0.9-4.7c0.3,1.2,1.8,11.1,1.8,11.1l2.4-0.3L19.6,3.7
		c0,0-3.3-0.9-5.2-2.2c-1,0.8-2.4,2.2-2.4,2.2L9.5,1.4z"/>
	<circle class="st0" cx="12" cy="10.1" r="0.4"/>
	<circle class="st0" cx="12" cy="13.1" r="0.4"/>
	<circle class="st0" cx="12" cy="16.1" r="0.4"/>
	<g>
		<polygon class="st1" points="9.7,4.2 9.7,6.1 11.6,5.1 		"/>
		<polygon class="st1" points="14.3,4.2 14.3,6.1 12.4,5.1 		"/>
	</g>
</g>
</svg>
