<?xml version="1.0" encoding="utf-8"?>
<!-- Generator: Adobe Illustrator 28.1.0, SVG Export Plug-In . SVG Version: 6.00 Build 0)  -->
<svg version="1.1" id="Capa_1" xmlns="http://www.w3.org/2000/svg" xmlns:xlink="http://www.w3.org/1999/xlink" x="0px" y="0px"
	 viewBox="0 0 24 24" style="enable-background:new 0 0 24 24;" xml:space="preserve">
<style type="text/css">
	.st0{fill:#F60D82;stroke:#FFFFFF;stroke-miterlimit:10;}
</style>
<path class="st0" d="M8,21v-2h3v-4.1c-1.4-0.2-2.6-0.9-3.6-2S6,10.5,6,9V3h12v6c0,1.5-0.5,2.8-1.4,3.9c-1,1.1-2.1,1.8-3.6,2V19h3v2
	H8z M12,13c0.9,0,1.8-0.3,2.4-0.9c0.7-0.6,1.2-1.3,1.4-2.1H8.2c0.2,0.9,0.7,1.6,1.4,2.1S11.1,13,12,13z M8,8h8V5H8V8z"/>
</svg>
